<?xml version="1.0" standalone="no"?>
<!DOCTYPE svg PUBLIC "-//W3C//DTD SVG 20010904//EN"
 "http://www.w3.org/TR/2001/REC-SVG-20010904/DTD/svg10.dtd">
<svg version="1.0" xmlns="http://www.w3.org/2000/svg"
 width="1069.000000pt" height="339.000000pt" viewBox="0 0 1069.000000 339.000000"
 preserveAspectRatio="xMidYMid meet">

<g transform="translate(0.000000,339.000000) scale(0.100000,-0.100000)"
fill="#000000" stroke="none">
<path d="M4632 3108 c-17 -17 -15 -45 3 -52 13 -4 14 -10 5 -26 -13 -24 -28
-25 -52 -3 -15 13 -23 15 -36 6 -18 -11 -18 -16 -7 -45 5 -14 1 -17 -20 -15
-35 3 -59 -29 -33 -44 10 -6 14 -17 11 -31 -4 -19 2 -16 31 16 20 22 39 36 43
31 5 -4 2 -10 -4 -12 -24 -8 -14 -33 12 -33 31 0 45 28 22 42 -10 5 -17 13
-17 18 0 15 30 12 46 -5 12 -11 20 -12 35 -5 20 11 27 40 9 40 -5 0 -10 5 -10
10 0 13 88 100 102 100 5 0 22 -8 36 -19 48 -33 122 -71 140 -71 14 0 14 -2
-3 -18 -11 -10 -33 -24 -48 -30 -26 -11 -29 -10 -34 8 -3 13 -14 20 -29 20
-30 0 -33 -30 -4 -37 27 -7 25 -17 -5 -31 -37 -17 -52 -15 -58 8 -6 25 -15 25
-46 1 -31 -24 -19 -44 22 -37 18 3 25 3 17 -1 -8 -3 -19 -12 -25 -19 -5 -6
-21 -15 -35 -19 -18 -4 -21 -3 -11 3 21 15 5 44 -21 40 -29 -4 -35 -35 -11
-53 17 -13 17 -14 -2 -29 -11 -8 -25 -16 -32 -16 -6 0 -18 -3 -27 -6 -11 -4
-19 2 -25 17 -4 13 -12 23 -17 22 -5 -1 -8 5 -6 13 6 28 -50 16 -80 -18 -19
-22 -31 -29 -34 -20 -6 13 -34 17 -34 4 0 -4 -17 -15 -39 -24 -21 -9 -45 -23
-52 -30 -8 -8 -37 -27 -65 -42 -27 -15 -65 -40 -84 -56 -18 -15 -57 -41 -87
-56 -29 -16 -82 -50 -116 -76 -34 -26 -68 -47 -74 -48 -7 0 -13 -4 -13 -10 0
-5 -6 -10 -12 -10 -7 0 -55 -32 -106 -70 -51 -38 -103 -75 -116 -82 -38 -21
-108 -69 -128 -88 -10 -9 -48 -32 -83 -51 -36 -19 -65 -39 -65 -46 0 -7 2 -13
4 -13 14 0 239 140 256 159 7 9 41 29 75 45 17 8 46 28 65 46 19 17 62 47 95
67 33 20 76 49 95 64 19 15 71 49 115 75 88 52 84 50 136 94 20 16 42 30 48
30 13 0 113 67 122 82 4 7 9 6 13 -1 4 -6 16 -11 28 -11 20 0 76 34 90 55 5 7
8 7 8 -1 0 -12 -46 -54 -60 -54 -6 0 -10 -4 -10 -8 0 -5 -22 -21 -49 -35 -27
-15 -73 -47 -102 -71 -30 -24 -75 -59 -100 -78 -78 -56 -141 -102 -158 -116
-14 -12 -12 -13 13 -7 16 3 61 30 100 59 39 29 85 61 101 72 17 10 46 32 66
50 20 17 58 44 85 60 27 15 71 45 98 66 l48 38 29 -21 c16 -11 29 -25 29 -31
0 -6 18 -8 48 -4 26 4 64 8 85 9 24 2 47 13 65 30 16 15 33 27 38 27 6 0 19 9
29 20 11 12 31 20 50 20 34 0 55 15 55 40 0 10 6 30 14 46 7 16 17 41 20 57 6
23 3 29 -21 38 -53 20 -98 43 -140 71 -50 33 -91 36 -122 7 l-22 -21 -23 21
c-26 24 -28 25 -44 9z m308 -190 c-26 -21 -30 -21 -50 -8 -13 9 -12 12 5 23
52 32 88 20 45 -15z m-76 -49 c-3 -5 -18 -9 -34 -9 -19 0 -33 -7 -40 -20 -6
-11 -16 -20 -24 -20 -7 0 -28 -13 -46 -30 -25 -22 -43 -30 -72 -30 -24 0 -37
4 -33 10 3 6 11 10 16 10 6 0 29 13 53 29 23 16 64 41 91 56 28 15 54 32 60
37 11 10 38 -20 29 -33z"/>
<path d="M4730 3025 c0 -8 5 -15 10 -15 6 0 10 7 10 15 0 8 -4 15 -10 15 -5 0
-10 -7 -10 -15z"/>
<path d="M4405 2658 c-38 -28 -94 -70 -123 -92 -88 -68 -196 -145 -217 -155
-11 -5 -31 -20 -45 -33 -46 -44 -84 -63 -127 -64 -23 -1 -40 3 -37 7 3 5 8 7
12 5 4 -2 15 7 25 20 10 13 14 24 9 24 -14 0 -62 -25 -62 -32 0 -5 -5 -8 -12
-8 -6 0 0 13 15 28 15 15 27 31 27 35 0 7 -32 -3 -40 -13 -3 -4 -84 -60 -180
-125 -204 -137 -199 -133 -181 -144 10 -6 3 -16 -25 -37 -22 -16 -40 -32 -42
-36 -7 -16 -31 -7 -55 22 -28 33 -37 36 -55 18 -13 -13 1 -48 20 -48 5 0 25
-12 43 -27 57 -49 71 -59 88 -66 28 -11 20 -50 -18 -87 -38 -36 -92 -60 -141
-60 -17 0 -37 -6 -43 -14 -7 -8 -28 -17 -49 -21 -39 -7 -75 -31 -137 -89 l-37
-35 33 -62 c18 -34 48 -73 67 -88 18 -14 43 -34 54 -43 11 -10 25 -15 30 -11
6 3 -5 17 -23 32 -69 53 -119 121 -119 161 0 9 12 27 28 40 15 12 36 31 47 41
12 10 56 25 105 34 112 21 160 35 191 56 25 18 52 69 63 121 7 29 49 75 54 59
2 -5 -1 -19 -7 -30 -6 -11 -11 -49 -11 -85 0 -37 -4 -74 -9 -84 -4 -9 -18 -37
-29 -62 -44 -95 -74 -130 -185 -220 -56 -45 -67 -60 -45 -60 15 0 72 43 141
109 59 56 127 157 127 190 0 9 4 21 10 27 5 5 10 34 10 64 1 30 6 86 12 123
11 68 12 68 72 112 34 24 70 53 82 64 11 11 31 26 45 33 30 16 100 69 114 85
18 22 79 63 93 63 18 0 -13 -29 -94 -87 -64 -47 -154 -128 -154 -141 0 -4 18
-28 39 -52 50 -56 86 -131 94 -191 5 -40 2 -53 -22 -89 -29 -43 -94 -80 -175
-101 -23 -6 -53 -13 -67 -17 -52 -14 -145 -110 -125 -130 6 -5 44 32 64 63 12
18 61 45 81 45 11 0 22 4 25 8 3 5 18 9 34 10 33 1 133 44 157 68 9 9 18 14
21 11 6 -6 -14 -121 -27 -155 -12 -32 -12 -95 1 -87 6 3 10 17 10 30 0 13 4
26 9 29 5 3 11 23 14 43 2 21 12 81 21 133 26 144 2 237 -86 334 -21 22 -38
46 -38 53 0 10 37 41 144 117 23 17 48 37 56 46 8 9 31 27 50 40 19 13 58 43
85 66 28 23 76 58 108 79 33 20 78 54 100 76 23 21 45 39 49 39 8 0 158 102
188 127 8 7 24 19 35 27 20 15 20 15 -2 16 -13 0 -23 -3 -23 -8 0 -4 -13 -13
-28 -20 -16 -6 -38 -21 -50 -32 -12 -11 -27 -20 -34 -20 -11 0 4 14 71 67 14
11 14 12 -4 13 -11 0 -51 -23 -90 -52z m-345 -298 c0 -5 -4 -10 -10 -10 -5 0
-10 5 -10 10 0 6 5 10 10 10 6 0 10 -4 10 -10z m-290 -120 c-24 -22 -50 -40
-57 -40 -7 0 -13 -4 -13 -10 0 -5 -7 -10 -16 -10 -20 0 29 50 79 80 52 32 55
22 7 -20z m-120 -77 c-8 -3 -23 -14 -34 -25 -11 -10 -48 -37 -83 -59 -63 -42
-82 -66 -40 -53 22 7 107 61 117 75 8 11 103 69 113 69 10 0 -75 -79 -86 -80
-4 0 -21 -12 -37 -27 -17 -15 -56 -44 -88 -65 l-57 -38 -22 25 c-13 15 -23 29
-23 33 0 11 223 152 240 151 13 0 13 -1 0 -6z"/>
<path d="M3180 2373 c-59 -10 -119 -50 -206 -139 -88 -90 -108 -122 -55 -87
14 9 42 35 61 57 94 107 149 139 255 144 72 4 105 -6 229 -69 40 -20 57 -19
38 3 -11 13 -44 31 -123 67 -46 20 -150 33 -199 24z"/>
<path d="M2620 2115 c-71 -12 -161 -36 -205 -54 -75 -32 -102 -46 -153 -80
-62 -41 -159 -141 -178 -182 -16 -34 -34 -137 -34 -195 0 -27 -5 -98 -11 -157
-10 -98 -9 -130 6 -115 8 8 23 111 29 193 19 272 14 255 103 351 68 73 190
144 308 179 33 9 73 21 89 26 16 5 43 9 60 9 35 1 121 22 132 33 11 10 -60 7
-146 -8z"/>
<path d="M3160 2081 c-8 -4 -28 -15 -45 -24 -47 -24 -70 -62 -71 -116 0 -26
-4 -52 -8 -59 -15 -25 -117 -82 -144 -81 -15 1 -39 -3 -53 -9 -21 -8 -32 -7
-50 6 -13 9 -27 20 -31 26 -4 6 -10 7 -13 4 -9 -9 20 -46 64 -83 20 -16 36
-37 36 -45 0 -8 9 -16 19 -18 26 -5 47 -28 41 -44 -3 -8 6 -18 22 -25 16 -7
44 -33 63 -58 19 -25 40 -51 46 -58 5 -7 13 -20 17 -29 3 -10 11 -18 17 -18
22 0 8 37 -35 94 -43 56 -57 96 -35 96 6 0 10 8 10 19 0 10 18 30 43 47 23 16
44 31 47 34 5 5 20 14 99 58 78 43 113 69 102 76 -6 4 -38 -9 -71 -28 -33 -19
-62 -31 -65 -27 -4 8 96 81 111 81 3 0 12 7 21 15 14 14 13 15 -13 9 -16 -4
-30 -11 -32 -16 -2 -4 -12 -8 -23 -8 -10 0 -19 -4 -19 -10 0 -5 -10 -10 -22
-9 l-23 0 23 11 c12 6 22 15 22 20 0 4 7 8 15 8 8 0 15 5 15 10 0 6 7 10 15
10 8 0 15 5 15 11 0 8 -11 9 -32 5 l-33 -6 23 19 c20 18 30 41 16 41 -3 0 -20
-10 -37 -22 -18 -13 -41 -28 -52 -34 -11 -5 -32 -18 -47 -28 -27 -18 -27 -17
-33 6 -3 13 -2 35 4 50 11 30 61 68 89 68 12 0 24 5 27 10 3 6 19 10 36 10 16
0 29 5 29 10 0 12 -78 12 -100 1z m30 -151 c0 -5 -4 -10 -10 -10 -5 0 -10 5
-10 10 0 6 5 10 10 10 6 0 10 -4 10 -10z m-30 -16 c0 -11 -34 -33 -50 -33 -10
-1 -6 6 10 19 26 20 40 25 40 14z m7 -50 c-3 -3 -12 -4 -19 -1 -8 3 -5 6 6 6
11 1 17 -2 13 -5z m-117 -29 c-32 -19 -44 -19 -28 0 7 8 22 14 33 14 18 0 17
-1 -5 -14z m-108 -65 c-12 -11 -26 -20 -32 -20 -5 0 -10 -4 -10 -10 0 -5 -7
-10 -15 -10 -18 0 -20 20 -2 20 6 0 23 9 37 20 33 26 50 26 22 0z m158 0 c-14
-11 -30 -20 -37 -20 -6 0 -13 -4 -15 -8 -6 -15 -99 -73 -111 -69 -13 4 60 60
110 84 18 8 33 19 33 24 0 5 10 9 23 9 l22 0 -25 -20z"/>
<path d="M5720 1973 c-47 -2 -89 -8 -95 -14 -11 -11 -15 -69 -39 -578 -12
-264 -13 -357 -5 -367 8 -10 41 -14 125 -14 136 0 125 -16 122 185 -1 77 1
199 5 270 14 242 28 440 33 466 6 30 -18 60 -44 57 -9 -1 -55 -4 -102 -5z
m-27 -39 c8 -9 -45 -114 -55 -108 -4 3 -8 30 -8 60 0 53 1 54 28 54 16 0 31
-3 35 -6z m-43 -219 c0 -41 -4 -75 -8 -75 -4 0 -9 34 -10 75 -2 47 1 75 8 75
6 0 10 -30 10 -75z m-28 -287 c-9 -9 -12 -7 -12 12 0 19 3 21 12 12 9 -9 9
-15 0 -24z"/>
<path d="M7570 1958 c-96 -48 -168 -148 -211 -295 -29 -98 -42 -323 -23 -402
39 -168 142 -261 287 -261 228 1 367 215 366 565 0 156 -34 268 -102 336 -55
55 -100 73 -192 76 -66 3 -88 -1 -125 -19z m166 -200 c26 -50 28 -252 3 -365
-33 -148 -74 -198 -133 -160 -33 22 -41 77 -33 228 11 203 59 329 123 329 16
0 29 -10 40 -32z m54 -108 c0 -5 -2 -10 -4 -10 -3 0 -8 5 -11 10 -3 6 -1 10 4
10 6 0 11 -4 11 -10z m-3 -192 c-3 -7 -5 -2 -5 12 0 14 2 19 5 13 2 -7 2 -19
0 -25z m140 -13 c-2 -14 -7 -26 -12 -26 -5 0 -10 12 -12 26 -3 17 1 25 12 25
11 0 15 -8 12 -25z m-2 -105 c3 -5 2 -10 -4 -10 -5 0 -13 5 -16 10 -3 6 -2 10
4 10 5 0 13 -4 16 -10z m-65 -19 c0 -22 -27 -48 -38 -36 -4 4 -1 10 6 12 6 3
12 13 12 24 0 10 5 19 10 19 6 0 10 -8 10 -19z m-65 -141 c3 -5 3 -15 -1 -21
-6 -11 -23 6 -24 24 0 10 18 9 25 -3z m-247 -18 c2 -7 -3 -12 -12 -12 -9 0
-16 7 -16 16 0 17 22 14 28 -4z"/>
<path d="M6648 1963 c-46 -5 -42 13 -63 -318 -9 -137 -20 -300 -25 -361 -6
-60 -10 -149 -10 -197 l0 -87 119 0 c86 0 122 4 130 13 6 8 12 79 13 182 l3
169 55 18 c30 9 72 17 93 17 44 1 42 15 25 -207 -9 -112 -9 -155 -1 -163 13
-13 190 -24 227 -15 l23 6 6 262 c3 145 11 353 17 462 6 110 8 206 6 213 -6
16 -221 19 -231 3 -3 -5 -9 -82 -14 -171 -6 -118 -12 -164 -22 -170 -23 -15
-156 -15 -171 -1 -4 4 -3 79 2 167 6 110 5 163 -2 172 -10 13 -91 15 -180 6z
m327 -443 c-3 -5 -13 -10 -21 -10 -8 0 -14 5 -14 10 0 6 9 10 21 10 11 0 17
-4 14 -10z"/>
<path d="M4449 1946 c-84 -26 -178 -110 -226 -201 -28 -54 -37 -79 -58 -165
-18 -69 -20 -326 -3 -384 37 -127 131 -195 271 -196 202 0 340 142 354 365 4
61 2 74 -19 104 -35 52 -83 65 -188 50 -47 -7 -90 -16 -96 -21 -11 -8 -16 -37
-31 -165 -6 -57 -5 -58 55 -53 27 2 28 -10 1 -44 -15 -20 -29 -26 -57 -26 -46
0 -58 8 -71 43 -22 57 -10 266 20 352 57 161 173 201 156 53 -10 -77 -9 -78
105 -78 126 0 127 1 127 125 1 132 -37 199 -136 240 -41 18 -152 18 -204 1z"/>
<path d="M4899 1933 c-6 -16 -14 -73 -19 -128 -5 -55 -14 -156 -20 -225 -7
-69 -10 -190 -8 -270 5 -152 14 -186 68 -248 32 -38 109 -62 201 -62 198 0
305 74 367 255 16 46 31 249 35 473 3 166 1 206 -10 218 -10 10 -40 14 -103
14 -76 0 -91 -3 -99 -18 -5 -10 -12 -81 -16 -158 -11 -261 -27 -449 -42 -486
-24 -60 -99 -86 -144 -49 -23 18 -24 25 -23 133 1 62 9 211 19 330 15 176 16
220 5 233 -9 11 -34 15 -106 15 -94 0 -95 0 -105 -27z m601 -43 c0 -16 -4 -30
-10 -30 -5 0 -10 14 -10 30 0 17 5 30 10 30 6 0 10 -13 10 -30z m-581 -86 c1
-47 -2 -83 -6 -81 -11 7 -16 167 -5 167 5 0 10 -39 11 -86z"/>
<path d="M6160 1949 c-134 -37 -220 -146 -228 -291 -7 -122 31 -179 193 -282
93 -60 105 -73 105 -121 0 -22 -5 -46 -12 -53 -23 -23 -92 -13 -168 23 -40 20
-80 35 -89 33 -19 -4 -85 -134 -77 -154 3 -7 27 -24 53 -38 190 -96 388 -87
483 20 49 57 70 115 70 198 0 62 -4 78 -29 117 -40 63 -58 80 -131 129 -105
69 -140 107 -140 152 0 48 17 85 43 92 34 9 47 -12 47 -73 0 -31 5 -62 12 -69
16 -16 180 -16 196 0 13 13 16 117 5 182 -8 51 -72 116 -130 134 -49 14 -152
15 -203 1z m220 -740 c-7 -11 -14 -18 -17 -15 -8 8 5 36 17 36 7 0 7 -6 0 -21z"/>
<path d="M8355 1949 c-27 -7 -159 -34 -228 -47 -17 -2 -32 -14 -37 -26 -9 -21
-26 -342 -37 -694 l-5 -183 108 3 109 3 8 125 c4 69 9 130 11 135 2 6 38 17
80 24 42 8 79 18 82 22 3 5 14 9 24 9 33 0 140 62 171 99 59 71 79 130 79 230
0 120 -23 184 -90 244 -26 24 -66 49 -88 55 -44 14 -142 14 -187 1z m127 -250
c24 -48 22 -77 -8 -116 -30 -39 -85 -70 -144 -79 l-42 -7 7 94 c10 128 12 131
76 144 68 14 90 7 111 -36z m-362 -570 c0 -94 -1 -99 -21 -99 -20 0 -21 4 -16
58 18 178 37 200 37 41z"/>
<path d="M2680 1815 c-9 -11 -7 -19 13 -39 14 -14 28 -43 32 -65 6 -35 20 -53
92 -121 47 -44 92 -80 100 -80 8 0 28 -9 45 -21 16 -12 31 -19 34 -17 11 11
-9 36 -41 51 -93 44 -190 140 -206 204 -6 23 -19 49 -29 58 -10 9 -16 23 -13
31 7 18 -11 18 -27 -1z"/>
<path d="M2141 1453 c-1 -18 19 -62 50 -109 56 -83 160 -180 316 -294 26 -19
50 -37 53 -41 7 -8 106 -44 170 -62 137 -38 288 -29 397 25 35 17 63 35 63 39
0 5 6 9 14 9 27 0 131 125 174 209 38 76 56 151 32 136 -5 -3 -10 -14 -10 -24
0 -20 -67 -151 -92 -181 -9 -9 -19 -24 -24 -32 -17 -29 -117 -107 -169 -132
-106 -50 -253 -60 -370 -25 -101 29 -162 55 -184 75 -14 13 -29 24 -33 24 -13
0 -203 158 -249 207 -49 53 -122 149 -132 173 -3 8 -6 10 -6 3z"/>
<path d="M3704 1415 c-47 -15 -111 -53 -135 -81 -18 -20 -44 -63 -94 -159 -18
-33 -50 -85 -73 -115 -23 -30 -39 -56 -37 -58 7 -7 55 27 55 39 0 5 11 22 24
36 14 15 39 56 57 92 75 151 118 192 242 231 38 12 51 31 20 29 -10 -1 -36 -7
-59 -14z"/>
<path d="M2070 1241 c0 -11 5 -23 10 -26 6 -3 10 -13 10 -21 0 -47 141 -217
282 -338 43 -37 146 -89 230 -116 58 -18 83 -21 200 -16 145 5 215 13 224 27
3 5 16 9 30 9 20 0 120 58 169 98 6 5 22 16 37 26 35 23 48 52 15 35 -12 -7
-24 -15 -27 -18 -5 -6 -69 -46 -145 -92 -56 -33 -222 -69 -323 -69 -132 0
-281 51 -386 134 -113 88 -306 321 -306 370 0 9 -4 16 -10 16 -5 0 -10 -9 -10
-19z"/>
</g>
</svg>
