<?xml version="1.0" standalone="no"?>
<!DOCTYPE svg PUBLIC "-//W3C//DTD SVG 20010904//EN"
 "http://www.w3.org/TR/2001/REC-SVG-20010904/DTD/svg10.dtd">
<svg version="1.0" xmlns="http://www.w3.org/2000/svg"
 width="500.000000pt" height="500.000000pt" viewBox="0 0 500.000000 500.000000"
 preserveAspectRatio="xMidYMid meet">

<g transform="translate(0.000000,500.000000) scale(0.100000,-0.100000)"
fill="#000000" stroke="none">
<path d="M2176 3052 c-3 -6 -3 -18 0 -27 5 -13 2 -15 -21 -9 -24 6 -27 4 -22
-10 5 -12 2 -16 -10 -14 -9 2 -18 -3 -20 -9 -3 -7 0 -13 7 -13 6 0 8 -6 4 -12
-4 -7 4 -3 17 9 17 16 32 20 48 16 19 -5 23 -3 18 9 -3 9 4 25 17 37 l23 22
46 -25 47 -24 -50 -26 c-39 -20 -48 -22 -43 -10 4 12 2 15 -8 12 -8 -3 -15
-14 -15 -26 -1 -26 -1 -26 36 -7 17 9 30 11 30 5 0 -5 -7 -10 -15 -10 -8 0
-15 -4 -15 -10 0 -5 -5 -10 -11 -10 -6 0 -17 -7 -25 -15 -9 -8 -23 -15 -32
-15 -14 0 -14 3 4 18 23 19 26 43 5 50 -10 3 -12 -1 -8 -17 3 -11 1 -24 -4
-27 -13 -8 -50 6 -44 17 11 17 -28 9 -42 -8 -8 -10 -12 -12 -8 -5 6 11 -87
-41 -154 -88 -14 -9 -57 -38 -96 -64 -38 -26 -92 -62 -119 -81 -44 -30 -52
-33 -66 -20 -46 42 -138 57 -188 31 -33 -17 -111 -96 -95 -96 6 0 24 15 40 34
53 65 115 81 189 50 70 -29 70 -33 4 -76 -33 -22 -60 -41 -60 -43 0 -2 20 -16
45 -32 25 -15 45 -33 45 -40 0 -17 -50 -53 -74 -53 -12 0 -27 -5 -33 -11 -6
-6 -19 -9 -29 -7 -14 2 -8 10 26 30 25 15 39 27 32 28 -7 0 -25 -7 -40 -16
l-27 -16 25 22 c21 19 22 21 5 16 -17 -5 -16 -3 5 15 19 16 20 19 6 15 -16 -6
-17 -4 -6 9 18 21 0 18 -30 -5 -31 -25 -40 -25 -40 -1 0 22 14 34 55 49 18 6
23 11 12 11 -38 2 -76 -28 -83 -64 -6 -35 -54 -82 -72 -71 -4 2 -14 1 -22 -4
-10 -6 -21 -3 -35 8 -22 18 6 -14 84 -98 28 -30 51 -59 51 -65 0 -5 4 -3 10 5
8 12 11 12 27 -1 33 -29 48 -31 17 -2 -17 15 -37 39 -43 51 -18 34 16 68 76
77 76 11 92 21 114 71 11 26 21 45 23 43 9 -10 -14 -119 -29 -145 -10 -16 -39
-48 -64 -71 -54 -49 -51 -57 4 -13 61 49 86 93 96 173 5 38 10 71 11 72 6 3
163 121 178 133 13 10 11 11 -12 8 -15 -3 -33 -8 -39 -12 -7 -4 -9 -3 -6 3 4
6 1 13 -7 16 -17 7 -79 -30 -71 -42 3 -5 0 -13 -6 -17 -8 -4 -9 -3 -5 4 11 18
0 14 -45 -13 -22 -14 -37 -30 -34 -34 2 -5 -6 -16 -19 -25 -21 -13 -26 -13
-36 -1 -9 11 -6 17 17 31 15 10 124 81 241 158 118 78 218 140 224 138 6 -1
22 4 37 13 26 16 26 16 5 -2 -12 -10 -65 -49 -118 -87 -53 -39 -96 -71 -96
-73 0 -7 46 21 100 61 111 83 141 99 164 87 31 -17 77 -10 112 16 17 13 37 23
45 23 13 0 47 67 37 74 -1 2 -27 16 -56 31 -43 23 -57 27 -71 18 -13 -8 -22
-8 -29 -1 -6 6 -12 6 -16 0z m149 -82 c-3 -5 -13 -10 -21 -10 -8 0 -12 5 -9
10 3 6 13 10 21 10 8 0 12 -4 9 -10z m-542 -312 c-4 -7 -8 -17 -8 -23 0 -5 -8
-9 -18 -7 -9 2 -16 -2 -15 -8 2 -6 -23 -32 -54 -57 -48 -38 -60 -44 -73 -33
-19 16 -9 33 16 25 19 -6 86 32 75 42 -3 3 -18 -4 -34 -16 -29 -20 -56 -30
-36 -13 22 20 87 55 79 43 -5 -9 -3 -12 6 -9 8 3 13 10 12 16 -2 6 9 20 24 31
29 24 38 26 26 9z m-292 -161 c-6 -8 -8 -16 -5 -19 3 -3 0 -9 -7 -14 -8 -4
-10 -3 -5 4 4 7 2 12 -5 12 -7 0 -4 7 7 15 24 18 30 19 15 2z m-41 -31 c0 -2
-7 -7 -16 -10 -8 -3 -12 -2 -9 4 6 10 25 14 25 6z m-55 -32 c-11 -8 -19 -19
-18 -24 2 -5 -4 -7 -13 -3 -12 4 -10 10 13 24 34 23 46 24 18 3z m59 -10 c-18
-14 -18 -15 6 -9 23 6 23 5 -7 -20 -32 -25 -32 -27 -18 -55 21 -41 19 -47 -7
-15 -21 27 -21 29 -5 56 19 34 16 35 -21 12 -35 -22 -22 -7 20 23 37 26 63 33
32 8z"/>
<path d="M2260 2990 c0 -5 5 -10 10 -10 6 0 10 5 10 10 0 6 -4 10 -10 10 -5 0
-10 -4 -10 -10z"/>
<path d="M2145 2970 c-3 -5 1 -10 9 -10 9 0 16 5 16 10 0 6 -4 10 -9 10 -6 0
-13 -4 -16 -10z"/>
<path d="M2097 2864 c-22 -14 -35 -29 -31 -36 4 -7 3 -8 -5 -4 -14 9 -84 -41
-76 -55 3 -5 0 -7 -7 -4 -16 6 -111 -62 -104 -74 3 -4 -24 -31 -59 -60 -36
-28 -65 -55 -65 -60 0 -5 7 -14 16 -22 40 -33 56 -107 31 -141 -7 -9 -39 -25
-70 -36 -58 -19 -97 -46 -97 -66 1 -6 9 0 20 12 11 13 41 30 67 38 26 8 58 21
71 30 24 16 25 16 19 -7 -12 -51 -19 -99 -14 -99 3 0 13 32 22 72 20 89 13
138 -28 184 -17 20 -26 39 -21 43 11 10 167 129 203 156 75 54 116 87 116 93
0 14 16 32 28 32 6 0 2 -7 -9 -15 -10 -8 -15 -15 -11 -15 5 0 20 9 34 20 14
11 20 20 14 20 -7 0 -9 5 -6 10 8 14 6 12 -38 -16z m-177 -148 c0 -2 -8 -10
-17 -17 -16 -13 -17 -12 -4 4 13 16 21 21 21 13z"/>
<path d="M1796 2711 c-7 -11 22 -23 36 -15 6 4 5 10 -3 15 -18 11 -26 11 -33
0z"/>
<path d="M1245 2593 c-117 -15 -246 -99 -264 -171 -13 -52 -23 -211 -12 -192
5 8 12 59 16 112 7 95 8 98 44 136 46 47 113 79 205 99 97 20 102 28 11 16z"/>
<path d="M2673 2523 l-41 -4 -6 -137 c-4 -75 -8 -175 -9 -222 l-2 -85 58 -3
58 -3 -1 63 c-1 35 3 134 9 222 6 87 8 162 5 167 -3 5 -11 8 -17 7 -7 -1 -31
-3 -54 -5z m-3 -20 c-1 -5 -7 -19 -15 -33 l-14 -25 -1 33 c0 22 5 32 15 32 8
0 15 -3 15 -7z m-23 -115 c-2 -13 -4 -5 -4 17 -1 22 1 32 4 23 2 -10 2 -28 0
-40z m-10 -120 c-3 -8 -6 -5 -6 6 -1 11 2 17 5 13 3 -3 4 -12 1 -19z"/>
<path d="M3303 2523 c-9 -3 -13 -29 -13 -79 0 -80 -1 -82 -59 -86 l-34 -3 2
83 2 83 -53 -3 -53 -3 -12 -165 c-6 -91 -12 -191 -12 -223 l-1 -58 58 3 57 3
3 82 c3 81 3 81 34 92 59 21 59 20 52 -79 l-7 -90 62 0 61 0 1 98 c0 53 4 151
8 217 5 83 4 122 -3 127 -12 9 -74 9 -93 1z"/>
<path d="M3529 2508 c-82 -55 -127 -248 -81 -351 57 -129 214 -110 269 32 25
65 25 223 0 269 -38 69 -124 92 -188 50z m95 -84 c19 -49 -2 -221 -29 -244
-20 -17 -44 -1 -51 35 -8 43 13 173 32 202 17 27 39 30 48 7z m83 -156 c-3 -8
-6 -5 -6 6 -1 11 2 17 5 13 3 -3 4 -12 1 -19z m-36 -61 c-10 -9 -11 -8 -5 6 3
10 9 15 12 12 3 -3 0 -11 -7 -18z"/>
<path d="M2080 2509 c-43 -17 -89 -71 -110 -126 -30 -79 -28 -208 3 -254 28
-42 60 -59 112 -59 84 0 148 64 161 160 8 66 -10 86 -77 83 -29 -1 -56 -6 -61
-11 -4 -4 -11 -29 -14 -55 -6 -44 -5 -47 16 -47 19 0 20 -2 10 -15 -7 -8 -23
-15 -36 -15 -19 0 -24 7 -30 36 -15 80 27 219 64 212 12 -2 18 -15 20 -41 l3
-38 52 3 52 3 3 53 c3 49 0 56 -31 87 -28 28 -42 35 -73 34 -22 0 -50 -5 -64
-10z"/>
<path d="M2296 2488 c-13 -78 -25 -266 -19 -303 14 -90 57 -122 155 -113 122
12 162 98 156 333 l-3 110 -47 3 -46 3 -6 -53 c-3 -29 -7 -96 -10 -149 -6
-114 -10 -127 -44 -136 -43 -10 -53 16 -44 121 4 50 7 118 7 151 l0 60 -47 3
c-46 3 -47 2 -52 -30z m281 -10 c-3 -8 -6 -5 -6 6 -1 11 2 17 5 13 3 -3 4 -12
1 -19z m-270 -50 c-2 -13 -4 -3 -4 22 0 25 2 35 4 23 2 -13 2 -33 0 -45z"/>
<path d="M2876 2510 c-74 -23 -118 -121 -85 -192 5 -13 37 -42 70 -65 39 -28
59 -50 59 -63 0 -28 -26 -36 -64 -21 -60 25 -64 24 -80 -8 -22 -42 -21 -45 20
-64 117 -56 230 -15 241 86 7 58 -11 91 -78 142 -44 33 -54 47 -54 70 0 45 33
47 37 3 3 -33 4 -33 53 -33 44 0 50 3 53 22 2 12 -2 40 -8 63 -9 33 -18 44
-45 56 -38 15 -75 17 -119 4z m124 -334 c0 -3 -4 -8 -10 -11 -5 -3 -10 -1 -10
4 0 6 5 11 10 11 6 0 10 -2 10 -4z"/>
<path d="M3860 2504 c-35 -8 -67 -18 -71 -22 -4 -4 -10 -98 -14 -209 l-8 -203
52 0 51 0 0 43 c0 74 6 83 70 100 104 29 146 84 138 183 -9 106 -78 140 -218
108z m112 -108 c6 -14 8 -31 5 -40 -7 -17 -42 -41 -74 -51 -20 -5 -23 -3 -23
18 0 53 12 86 34 90 41 8 47 7 58 -17z m-172 -268 c0 -36 -3 -49 -10 -42 -10
10 -4 94 6 94 2 0 4 -23 4 -52z"/>
<path d="M1540 2500 c-9 -6 -10 -10 -3 -10 6 0 15 5 18 10 8 12 4 12 -15 0z"/>
<path d="M1268 2455 c-18 -18 63 -124 115 -151 44 -23 30 -2 -19 30 -32 20
-52 42 -68 77 -12 27 -25 47 -28 44z"/>
<path d="M1020 2263 c46 -96 189 -204 292 -221 96 -17 159 1 226 62 25 22 72
106 72 127 0 7 -12 -10 -26 -37 -34 -66 -70 -103 -121 -126 -139 -62 -319 25
-451 218 -7 11 -3 0 8 -23z"/>
<path d="M1724 2256 c-30 -13 -84 -73 -84 -92 0 -6 -14 -29 -31 -52 -17 -23
-26 -42 -21 -42 10 0 46 53 77 114 15 29 33 45 70 62 52 25 43 33 -11 10z"/>
<path d="M980 2187 c-1 -21 44 -88 91 -135 70 -71 136 -104 221 -110 85 -6
146 10 211 53 61 41 56 47 -6 8 -89 -56 -196 -68 -291 -32 -64 23 -170 120
-204 184 -12 22 -21 36 -22 32z"/>
</g>
</svg>
